<svg xmlns="http://www.w3.org/2000/svg" width="660" height="267" viewBox="0 0 660 267"><g><g><path fill="#fff" d="M156.631 25.72c37.72 7.598 89.39 21.16 131.138 17.994 37.327-2.83 91.747-13.195 105.106-17.993 16.699-5.998 24.558-10.996 48.624-22.492 24.066-11.496 57.956 9.996 69.252 28.49 15.053 24.642 64.341 14.994 92.337 24.49 27.995 9.497 41.257 36.487 52.553 55.48 11.297 18.994 0 89.468-26.522 121.956s-106.58 5.998-140.469 5.998c-33.89 0-49.116 9.497-61.886 16.994-12.77 7.497-107.071 9.496-144.398-16.994-37.328-26.49-54.518-15.494-88.407-15.494-33.89 0-89.881 49.981-150.293 41.984-60.411-7.997-29.96-89.467-42.73-146.946-12.77-57.48 108.544-102.963 155.695-93.466z"/></g></g></svg>